<?xml version="1.0" encoding="UTF-8"?>
<svg version="1.1" xmlns="http://www.w3.org/2000/svg" width="500" height="500">
<path d="M0 0 C0.89182983 -0.00281982 1.78365967 -0.00563965 2.70251465 -0.00854492 C3.68852661 -0.00652069 4.67453857 -0.00449646 5.69042969 -0.00241089 C6.7228479 -0.00416321 7.75526611 -0.00591553 8.81896973 -0.00772095 C12.25009821 -0.01214168 15.68117563 -0.00920069 19.11230469 -0.00582886 C21.48502614 -0.00650183 23.85774753 -0.0074718 26.23046875 -0.00872803 C31.21061864 -0.0102053 36.19075063 -0.00804949 41.17089844 -0.00338745 C47.57059148 0.00230985 53.97024258 -0.000969 60.36993408 -0.00695992 C65.27165038 -0.01056473 70.17335665 -0.00942731 75.07507324 -0.00683212 C77.43550623 -0.00616263 79.79594012 -0.00699204 82.15637207 -0.00931168 C85.44899931 -0.0118369 88.74155761 -0.00799944 92.03417969 -0.00241089 C93.02019165 -0.00443512 94.00620361 -0.00645935 95.02209473 -0.00854492 C95.91392456 -0.0057251 96.80575439 -0.00290527 97.72460938 0 C98.50406921 0.00037703 99.28352905 0.00075405 100.08660889 0.0011425 C101.86230469 0.12698364 101.86230469 0.12698364 102.86230469 1.12698364 C102.98749292 3.89555231 103.04838673 6.6403949 103.06762695 9.41043091 C103.07752655 10.27864471 103.08742615 11.14685852 103.09762573 12.04138184 C103.12933837 14.92535631 103.15403656 17.8093473 103.17871094 20.69338989 C103.19927205 22.68736715 103.22026828 24.68133997 103.24168396 26.67530823 C103.29699175 31.9343914 103.34636249 37.19351447 103.39453125 42.45266724 C103.44468286 47.81484547 103.50040194 53.17696545 103.55566406 58.53909302 C103.66335207 69.06834019 103.76477325 79.59763784 103.86230469 90.12698364 C104.93826904 90.6544519 106.0142334 91.18192017 107.12280273 91.72537231 C108.56080754 92.43586755 109.99870894 93.14657211 111.43652344 93.85745239 C112.14256714 94.20288086 112.84861084 94.54830933 113.5760498 94.90420532 C135.85860548 105.95250559 151.78054683 123.94385191 159.95751953 147.3442688 C161.9031026 153.32801296 163.61837129 159.37725276 165.29980469 165.43948364 C165.47964905 166.08725769 165.65949341 166.73503174 165.8447876 167.4024353 C168.86230469 178.36375127 168.86230469 178.36375127 168.86230469 183.12698364 C147.08230469 183.12698364 125.30230469 183.12698364 102.86230469 183.12698364 C103.19230469 194.67698364 103.52230469 206.22698364 103.86230469 218.12698364 C107.01792969 219.42635864 110.17355469 220.72573364 113.42480469 222.06448364 C127.34535425 227.95830386 139.5455507 234.97652958 150.86230469 245.12698364 C151.590625 245.77280396 152.31894531 246.41862427 153.06933594 247.08401489 C158.42776351 252.11458456 162.20860869 257.77779133 165.86230469 264.12698364 C166.32636719 264.90686646 166.79042969 265.68674927 167.26855469 266.49026489 C178.91434649 287.61601527 178.00303749 314.52247539 171.86230469 337.12698364 C167.69632142 350.81726657 160.7922064 361.90999294 150.86230469 372.12698364 C150.18683594 372.87592896 149.51136719 373.62487427 148.81542969 374.39651489 C136.83482063 387.25540169 120.38904362 395.66652194 103.86230469 401.12698364 C103.85017441 402.64248306 103.85017441 402.64248306 103.83779907 404.18859863 C103.76042524 413.6947186 103.67270846 423.2006939 103.5747776 432.70662498 C103.52476115 437.59411131 103.47843176 442.48157546 103.44042969 447.36917114 C103.40364424 452.08305607 103.35730304 456.79675777 103.30424118 461.5104866 C103.28566127 463.31184307 103.27056671 465.11323887 103.25896072 466.91465378 C103.24215951 469.43142342 103.21314017 471.94777011 103.18115234 474.46438599 C103.17791206 475.58971489 103.17791206 475.58971489 103.17460632 476.73777771 C103.09040901 481.89887932 103.09040901 481.89887932 100.86230469 484.12698364 C98.97638512 484.3730793 98.97638512 484.3730793 96.6355896 484.36749268 C95.7493541 484.370242 94.86311859 484.37299133 93.95002747 484.37582397 C92.97539047 484.36863342 92.00075348 484.36144287 90.99658203 484.35403442 C89.45995659 484.3544725 89.45995659 484.3544725 87.89228821 484.35491943 C84.49418776 484.35352213 81.0963045 484.33794203 77.69824219 484.32229614 C75.34697591 484.31856744 72.99570808 484.3157198 70.6444397 484.3137207 C64.44657118 484.30607303 58.24879594 484.28641479 52.05096436 484.26431274 C45.73027814 484.24387873 39.40957689 484.23472422 33.08886719 484.22463989 C20.67997197 484.20316998 8.27114607 484.16902037 -4.13769531 484.12698364 C-5.69649087 481.00939254 -5.26721664 477.70183879 -5.2512207 474.28079224 C-5.25136673 473.47095383 -5.25151276 472.66111542 -5.25166321 471.82673645 C-5.25096508 469.14293768 -5.24317736 466.45920783 -5.23535156 463.77542114 C-5.23348703 461.91739947 -5.23206329 460.05937732 -5.23106384 458.20135498 C-5.22724146 453.30555876 -5.21741354 448.40979209 -5.20635986 443.51400757 C-5.19613975 438.52042033 -5.19156493 433.52682832 -5.18652344 428.53323364 C-5.17579104 418.73113731 -5.15871795 408.92906293 -5.13769531 399.12698364 C-5.811306 398.93380554 -6.48491669 398.74062744 -7.17893982 398.54159546 C-8.06952591 398.28134583 -8.960112 398.02109619 -9.87768555 397.75296021 C-11.19747658 397.37038055 -11.19747658 397.37038055 -12.54393005 396.98007202 C-16.36855966 395.72215284 -19.73638463 393.90465413 -23.20019531 391.87698364 C-23.88992432 391.48003296 -24.57965332 391.08308228 -25.2902832 390.67410278 C-30.60165573 387.56230748 -35.47021729 384.14847543 -40.13769531 380.12698364 C-40.87117188 379.53659302 -41.60464844 378.94620239 -42.36035156 378.33792114 C-62.97889122 361.14991038 -70.1110238 337.11881222 -75.50683594 311.96340942 C-76.05300518 309.50776148 -76.66096215 307.08433218 -77.30957031 304.65432739 C-78.13769531 301.12698364 -78.13769531 301.12698364 -78.13769531 296.12698364 C-54.37769531 295.79698364 -30.61769531 295.46698364 -6.13769531 295.12698364 C-5.3878157 277.13218721 -5.3878157 277.13218721 -5.13769531 259.12698364 C-6.31332031 258.81760864 -7.48894531 258.50823364 -8.70019531 258.18948364 C-20.03272222 254.40005824 -30.15877661 246.80981495 -39.13769531 239.12698364 C-40.11738281 238.34710083 -41.09707031 237.56721802 -42.10644531 236.76370239 C-55.20842381 225.8236229 -64.14070991 207.89641439 -66.13769531 191.12698364 C-68.03820677 165.93377046 -64.3090771 140.02123556 -47.59472656 119.98635864 C-37.02649623 107.87243475 -24.23131506 99.10697115 -9.90576172 91.99710083 C-9.19674713 91.64460266 -8.48773254 91.29210449 -7.75723267 90.92892456 C-7.22278534 90.66428406 -6.68833801 90.39964355 -6.13769531 90.12698364 C-6.12738785 89.01420547 -6.11708038 87.90142731 -6.10646057 86.75492859 C-6.00890285 76.29200446 -5.90618598 65.82914216 -5.79835606 55.3663187 C-5.74308093 49.98667561 -5.68965373 44.60702712 -5.64038086 39.22732544 C-5.59280483 34.04018694 -5.54046475 28.85311679 -5.48475456 23.66605949 C-5.46430026 21.68244048 -5.44559239 19.6988027 -5.42862129 17.71515083 C-5.40464509 14.94684149 -5.37458167 12.17866263 -5.34301758 9.41043091 C-5.33726212 8.58181046 -5.33150665 7.75319 -5.32557678 6.89945984 C-5.23558788 0.00253246 -5.23558788 0.00253246 0 0 Z M101.86230469 303.12698364 C101.80841381 305.08501871 101.76956251 307.04347273 101.73730469 309.00198364 C101.71410156 310.09253052 101.69089844 311.18307739 101.66699219 312.30667114 C101.56169935 315.26408874 101.56169935 315.26408874 103.86230469 317.12698364 C103.86230469 312.50698364 103.86230469 307.88698364 103.86230469 303.12698364 C103.20230469 303.12698364 102.54230469 303.12698364 101.86230469 303.12698364 Z " fill="#FEFDFE" transform="translate(201.1376953125,9.873016357421875)"/>
<path d="M0 0 C12.39337423 10.6839433 20.20041035 23.09660108 25.25 38.6875 C25.25 39.3475 25.25 40.0075 25.25 40.6875 C15.02 40.6875 4.79 40.6875 -5.75 40.6875 C-8.225 35.2425 -8.225 35.2425 -10.75 29.6875 C-16.79408086 18.67863843 -26.88742964 13.10173322 -38.515625 9.53125 C-47.21725119 7.1015062 -55.69976234 5.92982301 -64.75 5.6875 C-65.80574219 5.64753906 -66.86148438 5.60757813 -67.94921875 5.56640625 C-85.400113 5.2015044 -102.61221454 7.69769062 -116.75 18.6875 C-117.99523437 19.60208984 -117.99523437 19.60208984 -119.265625 20.53515625 C-121.93318395 22.84620182 -123.57480712 25.07381975 -125.4375 28.0625 C-126.01886719 28.97773438 -126.60023438 29.89296875 -127.19921875 30.8359375 C-132.55666627 40.68716342 -132.29886685 53.58226128 -129.9453125 64.37890625 C-125.03988731 77.35291011 -114.93814143 84.99039351 -102.75 90.6875 C-94.8450289 94.22342545 -86.85241976 97.07706066 -78.5625 99.5625 C-77.43811523 99.90490723 -76.31373047 100.24731445 -75.15527344 100.60009766 C-68.63661218 102.56990267 -62.09646395 104.43927774 -55.52783203 106.23461914 C13.73539379 125.17282256 13.73539379 125.17282256 30 151.375 C35.07628918 160.56563316 37.85475304 170.20486319 38.25 180.6875 C38.28996094 181.47382813 38.32992187 182.26015625 38.37109375 183.0703125 C38.88314512 201.80536863 33.1998636 219.86131948 20.8125 234 C19.31025606 235.58038079 17.79046028 237.14434661 16.25 238.6875 C15.63640625 239.31269531 15.0228125 239.93789063 14.390625 240.58203125 C8.47415007 246.18245517 1.39209182 249.9002697 -5.75 253.6875 C-6.61109375 254.16316406 -7.4721875 254.63882812 -8.359375 255.12890625 C-39.12010072 270.75417934 -82.16929737 268.72833451 -114.1953125 258.59765625 C-135.00017085 251.15302621 -151.17958043 238.40726644 -161.625 218.875 C-164.75 211.6875 -164.75 211.6875 -168.75 195.6875 C-157.86 195.6875 -146.97 195.6875 -135.75 195.6875 C-134.88375 198.1625 -134.0175 200.6375 -133.125 203.1875 C-130.82004862 209.45936089 -128.45648185 214.82030902 -123.75 219.6875 C-123.20085937 220.2753125 -122.65171875 220.863125 -122.0859375 221.46875 C-106.10394474 236.97468341 -82.27620425 239.06891914 -61.13208008 238.91943359 C-40.44660497 238.52367322 -19.25793094 234.52940939 -3.75 219.796875 C4.56771915 211.02428059 8.29088725 199.97383489 8.6875 187.9375 C8.19499784 177.22954989 4.80573476 168.25381711 -2.80078125 160.6328125 C-24.15174612 142.18844957 -56.26208359 135.96639678 -82.87109375 129.42578125 C-106.48231605 123.55866228 -129.8511528 114.99458447 -146.75 96.6875 C-147.21792969 96.213125 -147.68585938 95.73875 -148.16796875 95.25 C-159.83911297 82.76877636 -162.66190672 66.32858292 -162.1640625 49.8359375 C-161.07459696 31.6576226 -153.12304896 15.89935182 -139.75 3.6875 C-103.3262656 -26.34195073 -37.70568887 -29.71063856 0 0 Z " fill="#804FEC" transform="translate(317.75,131.3125)"/>
<path d="M0 0 C14.95519222 3.20619072 29.26646999 7.63450963 44 12 C44 30.81 44 49.62 44 69 C37.44056752 69.93706178 31.34300108 70.18358026 24.75 70.1875 C23.14705078 70.20586914 23.14705078 70.20586914 21.51171875 70.22460938 C14.51812028 70.23735591 7.7964639 69.74754683 1 68 C0 67 0 67 -0.12025452 64.33616638 C-0.11803391 63.14813919 -0.11581329 61.960112 -0.11352539 60.73608398 C-0.11367142 60.08244873 -0.11381744 59.42881348 -0.1139679 58.75537109 C-0.11326883 56.58557872 -0.10547678 54.41587121 -0.09765625 52.24609375 C-0.09579205 50.74536689 -0.09436816 49.24463943 -0.09336853 47.74391174 C-0.08954352 43.78681774 -0.0797134 39.82976022 -0.06866455 35.87268066 C-0.05845006 31.83765151 -0.05387083 27.80261647 -0.04882812 23.76757812 C-0.03809111 15.84503531 -0.0210149 7.92252219 0 0 Z " fill="#804FEE" transform="translate(228,280)"/>
<path d="M0 0 C0.79148438 -0.00773438 1.58296875 -0.01546875 2.3984375 -0.0234375 C9.94907734 0.00053279 16.57381848 1.15340264 24.25 2.25 C24.25 22.05 24.25 41.85 24.25 62.25 C12.9908949 59.99817898 12.9908949 59.99817898 7.8671875 58.41015625 C6.76246094 58.06919922 5.65773437 57.72824219 4.51953125 57.37695312 C3.39933594 57.02568359 2.27914062 56.67441406 1.125 56.3125 C-0.00292969 55.96509766 -1.13085938 55.61769531 -2.29296875 55.25976562 C-8.20733431 53.42319948 -13.93732527 51.42975302 -19.75 49.25 C-19.75 33.74 -19.75 18.23 -19.75 2.25 C-12.77414792 0.85482958 -6.94968871 -0.06661043 0 0 Z " fill="#8150EC" transform="translate(247.75,156.75)"/>
<path d="M0 0 C14.52 0 29.04 0 44 0 C44 16.83 44 33.66 44 51 C40.37 50.67 36.74 50.34 33 50 C30.2253783 49.92637111 27.47918612 49.88073282 24.70703125 49.90234375 C23.39452393 49.90484131 22.0820166 49.90733887 20.72973633 49.90991211 C19.10704834 49.91901611 17.48436035 49.92812012 15.8125 49.9375 C10.594375 49.958125 5.37625 49.97875 0 50 C0 33.5 0 17 0 0 Z " fill="#8151EC" transform="translate(228,42)"/>
<path d="M0 0 C21.78 0.495 21.78 0.495 44 1 C44 15.85 44 30.7 44 46 C29.48 46 14.96 46 0 46 C0 30.82 0 15.64 0 0 Z " fill="#7F4DEE" transform="translate(228,416)"/>
<path d="M0 0 C21.78 0.495 21.78 0.495 44 1 C44 15.85 44 30.7 44 46 C29.48 46 14.96 46 0 46 C0 30.82 0 15.64 0 0 Z M2 3 C2 16.53 2 30.06 2 44 C14.87 44 27.74 44 41 44 C42.66608124 40.66783752 42.12017692 36.93526241 42.09765625 33.2734375 C42.09664917 32.50878174 42.09564209 31.74412598 42.09460449 30.95629883 C42.08936661 28.09585066 42.07540537 25.23542385 42.0625 22.375 C42.041875 15.98125 42.02125 9.5875 42 3 C28.8 3 15.6 3 2 3 Z " fill="#9572E4" transform="translate(228,416)"/>
<path d="M0 0 C2.68800977 0.62286841 5.3753992 1.24823207 8.0625 1.875 C8.81466797 2.04902344 9.56683594 2.22304688 10.34179688 2.40234375 C14.93743017 3.47664764 19.47297949 4.66534057 24 6 C24 6.33 24 6.66 24 7 C18.86817387 7.32756337 15.11237265 6.57846081 10.30859375 4.75390625 C7.43554732 3.7518291 7.43554732 3.7518291 2 3 C2.33 24.12 2.66 45.24 3 67 C5.97 67 8.94 67 12 67 C14.3349878 67.3215393 16.66845364 67.65438879 19 68 C21.60298682 68.08876786 24.2080052 68.13019341 26.8125 68.125 C28.11832031 68.12757813 29.42414063 68.13015625 30.76953125 68.1328125 C33.89038678 68.22567955 33.89038678 68.22567955 36 67 C37.99960012 66.960008 40.00047242 66.95653201 42 67 C41.505 62.545 41.505 62.545 41 58 C41.66 57.67 42.32 57.34 43 57 C43 60.96 43 64.92 43 69 C36.89403049 70.12969169 31.00498464 70.18384662 24.8125 70.1875 C23.73935547 70.19974609 22.66621094 70.21199219 21.56054688 70.22460938 C14.55042021 70.23733193 7.81235396 69.75350687 1 68 C0 67 0 67 -0.12025452 64.33616638 C-0.11803391 63.14813919 -0.11581329 61.960112 -0.11352539 60.73608398 C-0.11367142 60.08244873 -0.11381744 59.42881348 -0.1139679 58.75537109 C-0.11326883 56.58557872 -0.10547678 54.41587121 -0.09765625 52.24609375 C-0.09579205 50.74536689 -0.09436816 49.24463943 -0.09336853 47.74391174 C-0.08954352 43.78681774 -0.0797134 39.82976022 -0.06866455 35.87268066 C-0.05845006 31.83765151 -0.05387083 27.80261647 -0.04882812 23.76757812 C-0.03809111 15.84503531 -0.0210149 7.92252219 0 0 Z " fill="#8D69E0" transform="translate(228,280)"/>
<path d="M0 0 C0.99 0.33 1.98 0.66 3 1 C2.97905273 2.31194336 2.95810547 3.62388672 2.93652344 4.97558594 C2.8641203 9.84331344 2.81819887 14.71099335 2.78027344 19.57910156 C2.76015874 21.68595382 2.73286333 23.79275025 2.69824219 25.89941406 C2.64971832 28.92787447 2.62702984 31.95559678 2.609375 34.984375 C2.58872986 35.92617615 2.56808472 36.86797729 2.54681396 37.83831787 C2.47170419 43.13080456 2.47170419 43.13080456 5.02441406 47.62597656 C5.67635742 48.0794043 6.32830078 48.53283203 7 49 C4.69 48.34 2.38 47.68 0 47 C0 31.49 0 15.98 0 0 Z " fill="#916EE3" transform="translate(228,159)"/>
<path d="M0 0 C7.01068985 0.63733544 11.88434097 2.62811366 19 5 C19 19.52 19 34.04 19 49 C18.67 49 18.34 49 18 49 C17.97494385 48.04746338 17.9498877 47.09492676 17.92407227 46.11352539 C17.82908186 42.54066133 17.72909452 38.96795083 17.62768555 35.39526367 C17.58467981 33.85623801 17.54298471 32.31717509 17.50268555 30.77807617 C17.29324663 22.81164022 17.07058083 14.90790379 16 7 C15.2575 6.855625 14.515 6.71125 13.75 6.5625 C12.8425 6.376875 11.935 6.19125 11 6 C10.278125 5.855625 9.55625 5.71125 8.8125 5.5625 C7 5 7 5 5 3 C3.35008418 2.29289322 1.68437744 1.62056011 0 1 C0 0.67 0 0.34 0 0 Z " fill="#7E54DC" transform="translate(252,287)"/>
<path d="M0 0 C10.89 0 21.78 0 33 0 C33 0.66 33 1.32 33 2 C22.77 2 12.54 2 2 2 C3.32 5.96 4.64 9.92 6 14 C5.67 15.32 5.34 16.64 5 18 C4.16320723 15.37605694 3.33043058 12.75095616 2.5 10.125 C2.26152344 9.37863281 2.02304688 8.63226563 1.77734375 7.86328125 C0 2.2265625 0 2.2265625 0 0 Z " fill="#7B59CE" transform="translate(149,327)"/>
<path d="M0 0 C0.66 0 1.32 0 2 0 C2.33 0.66 2.66 1.32 3 2 C6.02934491 2.65772428 6.02934491 2.65772428 9 3 C9 3.66 9 4.32 9 5 C8.34 5 7.68 5 7 5 C7.495 5.61875 7.99 6.2375 8.5 6.875 C10 9 10 9 10 11 C10.515625 11.226875 11.03125 11.45375 11.5625 11.6875 C13.69290173 12.83463939 15.44920967 14.05245472 17.375 15.5 C20.43480232 17.74033042 23.30992509 19.0099799 27 20 C27 20.99 27 21.98 27 23 C15.72382413 18.81850069 6.81250388 10.75518307 0 1 C0 0.67 0 0.34 0 0 Z " fill="#825CDA" transform="translate(163,360)"/>
<path d="M0 0 C2 2 2 2 4 9 C-6.23 9 -16.46 9 -27 9 C-27 8.67 -27 8.34 -27 8 C-13.635 7.01 -13.635 7.01 0 6 C0 4.02 0 2.04 0 0 Z " fill="#916EE4" transform="translate(339,163)"/>
<path d="M0 0 C1 2 1 2 0.25 4.5625 C-1 7 -1 7 -4 8 C-4.185625 9.6396875 -4.185625 9.6396875 -4.375 11.3125 C-5 15 -5 15 -7 18 C-7.85436354 21.63104503 -8.5291056 25.27970258 -9.21875 28.9453125 C-9.4765625 29.95335937 -9.734375 30.96140625 -10 32 C-10.99 32.495 -10.99 32.495 -12 33 C-11.49927773 21.68367665 -8.30859535 8.30859535 0 0 Z " fill="#825DDA" transform="translate(169,145)"/>
<path d="M0 0 C4.5565527 3.71274665 6.57400393 8.79007402 9 14 C8.01 13.67 7.02 13.34 6 13 C6 12.34 6 11.68 6 11 C4.68 10.67 3.36 10.34 2 10 C2 8.02 2 6.04 2 4 C1.01 3.67 0.02 3.34 -1 3 C-0.67 2.01 -0.34 1.02 0 0 Z M-1 10 C-0.01 10.33 0.98 10.66 2 11 C1.34 11.66 0.68 12.32 0 13 C-0.33 12.01 -0.66 11.02 -1 10 Z " fill="#7F55E0" transform="translate(329,144)"/>
<path d="M0 0 C0.721875 0.78375 1.44375 1.5675 2.1875 2.375 C4.83299041 4.84412438 6.60373611 5.93260278 10 7 C10 8.98 10 10.96 10 13 C10.99 12.67 11.98 12.34 13 12 C13 13.65 13 15.3 13 17 C12.34 17.33 11.68 17.66 11 18 C10.72027344 17.43152344 10.44054687 16.86304688 10.15234375 16.27734375 C7.17818827 10.5489864 3.80017865 6.30217741 -1 2 C-0.67 1.34 -0.34 0.68 0 0 Z " fill="#815BDC" transform="translate(298,147)"/>
<path d="M0 0 C0.33 1.32 0.66 2.64 1 4 C1.66 4.33 2.32 4.66 3 5 C2.67 5.66 2.34 6.32 2 7 C-2.75 6.125 -2.75 6.125 -5 5 C-5 5.66 -5 6.32 -5 7 C-5.99 7.66 -6.98 8.32 -8 9 C-8.99 8.67 -9.98 8.34 -11 8 C-7.37 5.36 -3.74 2.72 0 0 Z " fill="#825ADF" transform="translate(188,128)"/>
<path d="M0 0 C1.69563696 2.54345544 3.22238158 5.10541327 4.75 7.75 C7.45107735 12.28727772 10.44398387 16.10531567 14 20 C9.76429964 19.13360675 8.31834754 18.47752131 5.875 14.8125 C5.24588583 13.54369831 4.62099974 12.27279287 4 11 C3.25539824 9.76755571 2.50553909 8.53826971 1.75 7.3125 C0 4 0 4 0 0 Z " fill="#825FD6" transform="translate(187,195)"/>
<path d="M0 0 C3.78716158 1.50362259 7.55245187 3.05487001 11.3125 4.625 C12.38113281 5.07101562 13.44976562 5.51703125 14.55078125 5.9765625 C15.76314453 6.48316406 15.76314453 6.48316406 17 7 C13.79219034 8.07165134 12.15091648 7.95821741 9.0625 6.625 C6.04951008 5.39164525 3.23381078 4.50528293 0 4 C0 2.68 0 1.36 0 0 Z " fill="#805BD9" transform="translate(202,359)"/>
<path d="M0 0 C0.66 0 1.32 0 2 0 C0.44298069 4.67105792 -2.08447373 8.08705685 -5 12 C-6.0625 10.125 -6.0625 10.125 -7 8 C-6.67 7.34 -6.34 6.68 -6 6 C-5.34 6 -4.68 6 -4 6 C-3.34 4.68 -2.68 3.36 -2 2 C-1.34 2 -0.68 2 0 2 C0 1.34 0 0.68 0 0 Z " fill="#815BDD" transform="translate(345,352)"/>
<path d="M0 0 C6.98930395 -0.50626749 11.24216875 -0.11273661 17 4 C18.01629473 4.98343532 19.02067295 5.97974585 20 7 C13.33333333 5 6.66666667 3 0 1 C0 0.67 0 0.34 0 0 Z " fill="#8460D8" transform="translate(262,267)"/>
<path d="M0 0 C2.3490153 2.76848232 4.33739423 5.50371406 6.0625 8.6875 C7.77122879 12.16393231 7.77122879 12.16393231 11 14 C10.67 14.99 10.34 15.98 10 17 C0 6.03333333 0 6.03333333 0 0 Z " fill="#805DD5" transform="translate(161,211)"/>
<path d="M0 0 C0.66 0.33 1.32 0.66 2 1 C1.67 1.66 1.34 2.32 1 3 C0.34 3 -0.32 3 -1 3 C-1 3.66 -1 4.32 -1 5 C-2.63790712 6.04644066 -4.31008021 7.0398183 -6 8 C-7.34631825 8.98244845 -8.68441297 9.97676564 -10 11 C-10 10.01 -10 9.02 -10 8 C-7.8125 5.95703125 -7.8125 5.95703125 -5 3.8125 C-4.071875 3.09707031 -3.14375 2.38164062 -2.1875 1.64453125 C-1.1046875 0.83048828 -1.1046875 0.83048828 0 0 Z " fill="#F2E5FE" transform="translate(206,145)"/>
<path d="M0 0 C1.33256282 3.64120668 0.65840377 5.66876554 -0.8125 9.1875 C-1.16957031 10.06792969 -1.52664063 10.94835937 -1.89453125 11.85546875 C-3 14 -3 14 -5 15 C-4.67 12.03 -4.34 9.06 -4 6 C-3.01 5.67 -2.02 5.34 -1 5 C-0.67 3.35 -0.34 1.7 0 0 Z " fill="#805DD7" transform="translate(352,336)"/>
<path d="M0 0 C0 3.62941351 -0.64760255 4.32313393 -3 7 C-4.63654821 8.37013339 -6.29803595 9.7120272 -8 11 C-8 7 -8 7 -6.25 5.078125 C-5.5075 4.47484375 -4.765 3.8715625 -4 3.25 C-3.2575 2.63640625 -2.515 2.0228125 -1.75 1.390625 C-1.1725 0.93171875 -0.595 0.4728125 0 0 Z " fill="#F6EAFE" transform="translate(335,368)"/>
<path d="M0 0 C2.31 0 4.62 0 7 0 C4.48617788 1.67588141 2.17052712 2.94030311 -0.5625 4.1875 C-1.34753906 4.55230469 -2.13257813 4.91710937 -2.94140625 5.29296875 C-3.62074219 5.52628906 -4.30007812 5.75960937 -5 6 C-5.66 5.67 -6.32 5.34 -7 5 C-5 3 -5 3 -2.9375 2.5 C-2.298125 2.335 -1.65875 2.17 -1 2 C-0.67 1.34 -0.34 0.68 0 0 Z " fill="#835FD8" transform="translate(213,139)"/>
<path d="M0 0 C3.59930552 2.62652025 6.07666989 4.93963643 8 9 C7.67 9.66 7.34 10.32 7 11 C0.75 4.75 0.75 4.75 0 0 Z " fill="#805ED6" transform="translate(339,273)"/>
<path d="M0 0 C2.5654594 2.5654594 2.54046087 4.47686668 3 8 C1.68 7.67 0.36 7.34 -1 7 C-0.67 4.69 -0.34 2.38 0 0 Z " fill="#7D58D8" transform="translate(339,163)"/>
<path d="M0 0 C2.72426311 2.35277269 3.8141763 4.62496331 5 8 C4.01 7.67 3.02 7.34 2 7 C2 6.34 2 5.68 2 5 C1.01 4.67 0.02 4.34 -1 4 C-0.67 2.68 -0.34 1.36 0 0 Z " fill="#8965E0" transform="translate(333,150)"/>
<path d="M0 0 C0.66 0.33 1.32 0.66 2 1 C0.90554162 1.86657116 -0.20097781 2.71792724 -1.3125 3.5625 C-1.92738281 4.03816406 -2.54226562 4.51382813 -3.17578125 5.00390625 C-3.77777344 5.33261719 -4.37976563 5.66132813 -5 6 C-5.99 5.67 -6.98 5.34 -8 5 C-5.45378681 2.99940392 -3.01962385 1.20784954 0 0 Z " fill="#815CD8" transform="translate(197,123)"/>
<path d="M0 0 C2.1875 -0.3125 2.1875 -0.3125 5 0 C7.8125 2.5 7.8125 2.5 10 5 C6.08788267 3.84414715 3.1254959 2.64465038 0 0 Z " fill="#845FD9" transform="translate(190,383)"/>
<path d="M0 0 C0.33 0.66 0.66 1.32 1 2 C0.06553465 4.03144641 -0.93224776 6.03533587 -2 8 C-2.99 7.67 -3.98 7.34 -5 7 C-3.35 4.69 -1.7 2.38 0 0 Z " fill="#8763D9" transform="translate(321,342)"/>
<path d="M0 0 C1.32 1.32 2.64 2.64 4 4 C2.68 4.99 1.36 5.98 0 7 C-1.04449911 3.86650268 -0.93423645 3.01031744 0 0 Z " fill="#7F56DE" transform="translate(187,344)"/>
<path d="M0 0 C2.31 1.98 4.62 3.96 7 6 C6.34 6.66 5.68 7.32 5 8 C4.34 7.01 3.68 6.02 3 5 C2.01 4.34 1.02 3.68 0 3 C0 2.01 0 1.02 0 0 Z " fill="#835FDA" transform="translate(321,135)"/>
<path d="M0 0 C3.68754757 0.49831724 5.60490662 1.10067643 8 4 C5.69 3.67 3.38 3.34 1 3 C0.67 2.01 0.34 1.02 0 0 Z " fill="#825BDC" transform="translate(302,123)"/>
</svg>
